<svg xmlns="http://www.w3.org/2000/svg" viewBox="0 0 290 290" fill="currentColor" fill-rule="evenodd"><path d="M66.56 197.89C69.45 202.27 76.81 211.29 80.52 214.53C84.6 218.09 114.31 240.83 119.55 233.88C122.66 229.77 121.58 211.87 120.49 206.36C117.58 191.64 109.12 177.07 97.5 168.13C65.59 143.57 64.93 167.73 65.42 139.78C81.05 139.45 103.62 152.26 113.77 163.47C115.07 164.9 116.95 166.71 118.14 168.29C141.08 198.84 126.43 204.1 144.84 204.04C158.84 203.99 152.86 202.9 161.36 184.42C167.23 171.66 173.23 166.41 181.05 158.74C185.13 154.74 191.66 150.44 197.0 147.76C203.14 144.67 216.58 139.45 224.29 139.79C224.54 147.32 225.9 153.17 222.09 154.62L216.6 155.81C193.13 161.82 174.49 181.28 169.51 204.86C168.16 211.27 166.05 231.78 171.55 235.03C177.53 236.54 195.96 224.83 200.04 221.87C225.74 203.26 241.97 171.76 238.54 136.61C237.66 127.54 238.81 124.23 229.37 124.62C201.45 125.78 177.6 138.54 160.18 159.31C150.0 171.46 148.23 180.83 144.86 185.55C143.48 183.61 141.4 177.9 139.97 175.24C134.73 165.45 133.73 165.08 127.56 157.02C125.92 154.88 125.86 154.83 123.7 152.92C122.22 151.61 121.71 150.48 120.13 149.13C113.86 143.71 109.55 140.76 102.27 136.39C96.47 132.92 87.78 129.59 80.41 127.6C75.95 126.4 57.39 122.83 53.96 125.31C50.57 127.77 50.67 147.17 51.01 152.32C52.15 169.98 58.57 185.82 66.54 197.9L66.56 197.89M83.93 176.18C96.2 183.92 106.74 199.4 107.0 215.57C91.83 209.31 72.7 186.43 69.12 169.67C74.15 170.28 79.98 173.69 83.93 176.18M182.87 215.56C181.74 201.08 194.2 183.36 205.73 176.11C208.69 174.25 216.46 170.17 220.69 169.63C217.34 186.27 198.58 208.11 182.87 215.55L182.87 215.56 M247.4 42.12C221.18 15.84 184.95 -0.42 144.92 -0.42C104.89 -0.42 68.67 15.84 42.44 42.12C16.22 68.39 0.0 104.69 0.0 144.8C0.0 184.9 16.22 221.19 42.44 247.48C68.67 273.75 104.9 290.0 144.92 290.0C184.93 290.0 221.18 273.75 247.4 247.48C273.64 221.19 289.85 184.89 289.85 144.8C289.85 104.71 273.64 68.39 247.4 42.12M238.46 238.52C214.52 262.51 181.45 277.35 144.92 277.35C108.38 277.35 75.32 262.51 51.38 238.52C27.43 214.54 12.63 181.4 12.63 144.8C12.63 108.2 27.43 75.05 51.38 51.07C75.33 27.09 108.39 12.25 144.92 12.25C181.45 12.25 214.53 27.09 238.46 51.07C262.4 75.06 277.21 108.2 277.21 144.8C277.21 181.4 262.4 214.54 238.46 238.52 M231.7 80.01L232.67 78.99C232.74 78.04 232.78 77.09 232.78 76.12C232.78 64.62 226.48 54.78 217.74 47.88C210.73 42.36 202.75 37.85 194.68 34.15C184.43 29.48 173.54 26.25 162.41 24.61C156.54 23.74 150.62 23.31 144.69 23.31C133.16 23.31 121.63 24.96 110.56 28.22C99.87 31.37 89.63 36.02 80.21 41.99C70.47 48.17 61.07 55.32 57.76 66.98C56.67 70.84 56.28 74.9 56.62 78.91L56.66 78.95C57.33 86.98 60.85 94.21 66.19 99.6C72.15 105.59 80.38 109.32 89.48 109.32C94.96 109.32 100.13 107.96 104.67 105.59C105.99 114.4 110.1 122.3 116.08 128.31C123.4 135.7 133.54 140.27 144.72 140.27C155.9 140.27 166.04 135.71 173.37 128.31C179.34 122.31 183.45 114.42 184.78 105.62C189.3 107.99 194.45 109.32 199.9 109.32C208.99 109.32 217.22 105.61 223.19 99.6C228.52 94.21 232.03 87.02 232.72 79.0C232.38 79.34 232.06 79.69 231.71 80.01L231.7 80.01M144.69 36.08C154.24 36.08 163.52 37.35 172.34 39.68C164.24 44.5 154.79 47.26 144.71 47.26C134.62 47.26 125.16 44.5 117.05 39.67C125.88 37.34 135.13 36.08 144.69 36.08M105.99 87.95C105.9 88.09 105.81 88.22 105.72 88.33C105.13 89.12 104.49 89.87 103.8 90.56C100.14 94.27 95.07 96.55 89.48 96.55C83.89 96.55 78.82 94.26 75.15 90.56C71.47 86.87 69.21 81.76 69.21 76.12C69.21 69.82 72.15 64.03 76.94 60.05C77.42 59.65 77.93 59.27 78.42 58.89C82.1 56.08 85.86 53.43 89.84 51.08C91.87 49.88 93.93 48.75 96.03 47.69C97.08 47.16 98.14 46.64 99.21 46.14C99.58 45.97 102.0 44.59 102.28 44.78C107.91 49.43 114.32 53.16 121.25 55.77L106.0 87.95L105.99 87.95M164.41 119.29C159.36 124.38 152.4 127.52 144.71 127.52C137.03 127.52 130.06 124.37 125.03 119.29C119.98 114.21 116.88 107.2 116.88 99.45C116.88 88.84 128.72 69.63 133.69 59.11C137.27 59.71 140.96 60.02 144.71 60.02C148.68 60.02 152.55 59.67 156.31 59.02C161.99 71.01 172.57 86.72 172.57 99.44C172.57 107.19 169.45 114.21 164.42 119.28L164.41 119.29M214.22 90.57C210.55 94.27 205.49 96.55 199.9 96.55C194.3 96.55 189.22 94.27 185.56 90.57C185.37 90.38 185.2 90.21 185.01 90.01L168.71 55.58C175.45 52.98 181.67 49.32 187.16 44.8C192.62 47.14 197.89 49.94 202.9 53.16C211.37 58.6 220.15 64.93 220.15 76.12C220.15 81.76 217.87 86.87 214.22 90.56L214.22 90.57 M257.48 99.36C254.18 91.32 242.46 95.64 245.84 103.58C251.18 116.14 253.49 130.32 253.49 144.86C253.49 174.88 241.37 202.06 221.78 221.74C202.19 241.42 175.11 253.59 145.21 253.59C115.31 253.59 88.24 241.42 68.64 221.74C49.05 202.06 36.92 174.88 36.92 144.86C36.92 130.64 39.17 116.85 44.59 104.59C49.35 93.84 35.53 91.96 32.11 100.27C26.78 113.2 24.22 129.08 24.3 144.86C24.3 178.39 37.83 208.74 59.71 230.71C81.6 252.68 111.82 266.27 145.21 266.27C178.6 266.27 208.83 252.68 230.71 230.71C252.59 208.74 266.12 178.38 266.12 144.86C266.12 128.79 263.23 113.35 257.48 99.36"/></svg>